<svg id="ejqgzoskjdwq1" xmlns="http://www.w3.org/2000/svg" xmlns:xlink="http://www.w3.org/1999/xlink" viewBox="0 0 480 480" shape-rendering="geometricPrecision" text-rendering="geometricPrecision"><g id="ejqgzoskjdwq2" transform="matrix(0.10000000000000 -0 -0 -0.10000000000000 0 480)"><path id="ejqgzoskjdwq3" d="M1805,3109C1652,3093,1540,3044,1485,2970C1460,2936,1440,2882,1440,2848C1440,2831,1494,2830,2440,2830L3440,2830L3440,2975L3440,3120L2663,3119C2235,3118,1849,3114,1805,3109Z" fill="rgb(40,82,122)" stroke="none" stroke-width="1"/><path id="ejqgzoskjdwq4" d="M1440,2400L1440,2260L1700,2260L1960,2260L1960,2400L1960,2540L1700,2540L1440,2540L1440,2400Z" fill="rgb(40,82,122)" stroke="none" stroke-width="1"/><path id="ejqgzoskjdwq5" d="M2190,2400L2190,2260L2563,2258L2935,2255L2938,1963L2940,1670L3190,1670L3440,1670L3440,2105L3440,2540L2815,2540L2190,2540L2190,2400Z" fill="rgb(40,82,122)" stroke="none" stroke-width="1"/><path id="ejqgzoskjdwq6" d="M1440,1938C1442,1863,1497,1785,1577,1743C1694,1681,1727,1678,2238,1673L2700,1668L2700,1814L2700,1960L2070,1960L1440,1960L1440,1938Z" fill="rgb(40,82,122)" stroke="none" stroke-width="1"/></g></svg>